<svg width="318" height="128" viewBox="0 0 318 128" fill="none" xmlns="http://www.w3.org/2000/svg">
<g clip-path="url(#clip0_221_2)">
<path d="M132.687 28.1769H126V12H128.671V25.497H131.348V12H134.019V25.4741H135.358V30.874L132.687 30.1525V28.1769Z" fill="white"/>
<path d="M146.077 25.4741H148.754L148.056 28.1769H143.406V12H148.754L148.056 14.6971H146.094V18.7055H148.623L147.892 21.2309H146.077V25.4741Z" fill="white"/>
<path d="M162.115 12C162.47 11.9972 162.822 12.0694 163.148 12.2119C163.468 12.3436 163.759 12.5382 164.004 12.7845C164.245 13.0326 164.437 13.3239 164.571 13.6435C164.71 13.975 164.782 14.3314 164.781 14.6914V19.032C164.781 19.3901 164.71 19.7445 164.571 20.0742C164.44 20.3935 164.247 20.6834 164.004 20.9274C163.756 21.1699 163.466 21.3641 163.148 21.5C162.821 21.6399 162.47 21.7119 162.115 21.7119H159.444V28.1655H156.767V12H162.115ZM162.115 18.9289V14.5883H159.444V18.9403L162.115 18.9289Z" fill="white"/>
<path d="M180.808 12L176.804 20.0856L180.808 28.1655H178.114L175.443 22.7655V28.1655H172.766V12H175.443V17.3942L178.114 12H180.808Z" fill="white"/>
<path d="M188.811 28.1769V12H194.159C194.514 11.9977 194.865 12.0699 195.191 12.2119C195.833 12.4875 196.345 13.0023 196.62 13.6492C196.762 13.9798 196.834 14.3368 196.83 14.6971V17.795C196.814 18.1902 196.677 18.5707 196.439 18.8844C196.2 19.198 195.871 19.4296 195.497 19.5473C195.895 19.6236 196.25 19.845 196.496 20.1693C196.742 20.4937 196.861 20.8981 196.83 21.3053V25.497C196.831 25.8501 196.762 26.1998 196.626 26.5254C196.491 26.8509 196.292 27.1458 196.042 27.3924C195.795 27.6337 195.507 27.8278 195.191 27.965C194.864 28.1043 194.514 28.1763 194.159 28.1769H188.811ZM191.482 14.5883V18.2474H194.159V14.5883H191.482ZM191.482 20.8357V25.3882H194.159V20.8357H191.482Z" fill="white"/>
<path d="M207.844 25.4741L207.504 28.1769H204.833L207.504 12H210.175L212.852 28.1769H210.175L209.846 25.4741H207.844ZM209.506 22.777L208.848 17.3942L208.173 22.777H209.506Z" fill="white"/>
<path d="M237.846 12C238.201 11.9972 238.552 12.0694 238.878 12.2119C239.197 12.3464 239.487 12.5407 239.735 12.7845C239.977 13.0309 240.17 13.3227 240.302 13.6435C240.443 13.9741 240.515 14.3311 240.512 14.6914V19.032C240.514 19.3903 240.443 19.7453 240.302 20.0742C240.172 20.3947 239.979 20.6851 239.735 20.9274C239.485 21.1675 239.195 21.3613 238.878 21.5C238.552 21.6399 238.201 21.7119 237.846 21.7119H235.175V28.1655H232.498V12H237.846ZM237.846 18.9289V14.5883H235.175V18.9403L237.846 18.9289Z" fill="white"/>
<path d="M248.52 28.1769V12H251.191V28.1769H248.52Z" fill="white"/>
<path d="M261.881 28.1769C261.527 28.1763 261.176 28.1043 260.849 27.9651C260.534 27.8278 260.245 27.6338 259.999 27.3924C259.748 27.1411 259.549 26.8422 259.414 26.5129C259.279 26.1837 259.21 25.8306 259.21 25.4741V22.777H261.881V25.3882H264.558V20.8358H262.698V18.2475H264.558V14.5883H261.881V17.3942H259.216V14.6971C259.213 14.3368 259.284 13.9799 259.426 13.6492C259.56 13.3297 259.752 13.0384 259.993 12.7903C260.237 12.5454 260.526 12.3509 260.844 12.2176C261.169 12.0756 261.521 12.0035 261.876 12.0058H264.553C264.908 12.003 265.259 12.0751 265.585 12.2176C265.903 12.3509 266.192 12.5454 266.436 12.7903C266.686 13.0392 266.885 13.3361 267.02 13.6635C267.155 13.9909 267.225 14.3423 267.224 14.6971V17.7951C267.209 18.1907 267.073 18.572 266.834 18.886C266.596 19.2 266.266 19.4311 265.891 19.5473C266.289 19.6236 266.644 19.8451 266.89 20.1694C267.136 20.4937 267.255 20.8981 267.224 21.3053V25.497C267.226 25.8553 267.155 26.2102 267.014 26.5392C266.885 26.8599 266.692 27.1504 266.447 27.3924C266.2 27.6338 265.912 27.8278 265.596 27.9651C265.27 28.1049 264.919 28.177 264.564 28.1769H261.881Z" fill="white"/>
<path d="M284.59 25.4741H285.934V30.874L283.263 30.1525V28.1769H277.931V30.1525L275.26 30.874V25.4741H276.599V14.6971C276.598 14.3371 276.669 13.9807 276.809 13.6492C276.943 13.3297 277.135 13.0384 277.376 12.7903C277.621 12.544 277.912 12.3493 278.232 12.2176C278.558 12.0751 278.909 12.003 279.264 12.0058H284.607L284.59 25.4741ZM281.918 25.4741V14.5941H279.247V25.4741H281.918Z" fill="white"/>
<path d="M293.959 28.1769V12H299.307C299.662 11.9972 300.014 12.0694 300.339 12.2119C300.984 12.4829 301.498 12.9992 301.769 13.6492C301.91 13.9799 301.982 14.3368 301.978 14.6971V17.7951C301.963 18.1898 301.828 18.5701 301.59 18.8838C301.353 19.1976 301.025 19.4294 300.651 19.5473C301.048 19.6237 301.403 19.8453 301.648 20.1698C301.893 20.4943 302.011 20.8987 301.978 21.3053V25.497C301.978 25.8495 301.909 26.1984 301.775 26.5238C301.641 26.8491 301.444 27.1443 301.196 27.3924C300.947 27.6343 300.657 27.8284 300.339 27.9651C300.013 28.1049 299.662 28.177 299.307 28.1769H293.959ZM296.647 14.5883V18.2475H299.318V14.5883H296.647ZM296.647 20.8358V25.3882H299.318V20.8358H296.647Z" fill="white"/>
<path d="M312.992 25.4741L312.652 28.1769H309.981L312.652 12H315.329L318 28.1769H315.329L314.994 25.4741H312.992ZM314.66 22.777L313.996 17.3942L313.327 22.777H314.66Z" fill="white"/>
<path d="M143.99 69H137.989L135.012 59.9066L132 69H126L131.995 50.8303L126 32.6835H131.995L135.012 41.7426L137.989 32.6835H143.99L137.989 50.8074L143.99 69Z" fill="white"/>
<path d="M157.987 32.6835C158.784 32.6807 159.573 32.8424 160.306 33.1588C161.747 33.7828 162.896 34.9407 163.516 36.3942C163.833 37.1355 163.993 37.9349 163.987 38.742V48.4768C163.989 49.2685 163.833 50.0526 163.529 50.7824C163.225 51.5123 162.779 52.1731 162.218 52.7257C161.667 53.2729 161.018 53.71 160.306 54.0142C159.573 54.3306 158.784 54.4923 157.987 54.4894H151.992V68.9714H145.992V32.6835H157.987ZM157.987 48.2363V38.5015H151.992V48.2363H157.987Z" fill="white"/>
<path d="M179.816 32.6835H184.007V68.9771H177.984V50.8704L170.384 69H165.989V32.6835H171.989V50.8475L179.816 32.6835Z" fill="white"/>
<path d="M197.964 32.6836C198.76 32.6802 199.548 32.8419 200.278 33.1588C200.994 33.4676 201.644 33.9106 202.195 34.4644C202.745 35.0181 203.184 35.6732 203.488 36.3942C203.808 37.1346 203.968 37.9347 203.959 38.742V44.7948H197.964V38.7649H191.987V62.9415H197.964V56.8888H203.976V62.9415C203.981 63.7522 203.821 64.5552 203.505 65.3008C203.21 66.0282 202.769 66.6868 202.212 67.2363C201.658 67.7812 201.008 68.2162 200.295 68.519C199.566 68.8404 198.778 69.0043 197.982 69H191.987C191.189 69.0037 190.399 68.8399 189.667 68.519C188.956 68.2135 188.306 67.7788 187.75 67.2363C187.197 66.6837 186.757 66.0259 186.457 65.3008C186.145 64.5543 185.985 63.7519 185.986 62.9415V38.7649C185.981 37.9579 186.141 37.1584 186.457 36.4171C187.073 34.9606 188.224 33.8012 189.667 33.1817C190.4 32.8653 191.19 32.7036 191.987 32.7065L197.964 32.6836Z" fill="white"/>
<path d="M205.984 38.7248L207.606 32.6835H223.991L222.352 38.7248H217.962V69H211.962V38.7248H205.984Z" fill="white"/>
<path d="M243.971 62.9415C243.976 63.7522 243.815 64.5551 243.5 65.3008C243.204 66.0281 242.764 66.6868 242.207 67.2363C241.653 67.7801 241.003 68.215 240.29 68.519C239.561 68.8399 238.773 69.0037 237.976 69H231.993C231.197 69.0037 230.409 68.8399 229.679 68.519C228.967 68.215 228.317 67.7801 227.762 67.2363C227.205 66.6868 226.765 66.0281 226.469 65.3008C226.157 64.5543 225.997 63.7519 225.998 62.9415V38.7649C225.993 37.9578 226.153 37.1584 226.469 36.4171C226.774 35.6961 227.213 35.041 227.762 34.4873C228.315 33.9353 228.965 33.4925 229.679 33.1817C230.409 32.8574 231.196 32.6879 231.993 32.6835H237.993C238.789 32.6806 239.576 32.8424 240.307 33.1588C241.021 33.4696 241.672 33.9124 242.224 34.4644C242.774 35.0181 243.213 35.6732 243.517 36.3942C243.836 37.1346 243.997 37.9346 243.988 38.742L243.971 62.9415ZM237.976 62.701V38.5187H231.993V62.701H237.976Z" fill="white"/>
<path d="M245.979 69V32.6835H257.968C258.765 32.6807 259.555 32.8424 260.288 33.1588C261.731 33.7783 262.882 34.9377 263.498 36.3942C263.814 37.1355 263.974 37.9349 263.968 38.742V45.6881C263.935 46.575 263.63 47.4296 263.094 48.1335C262.559 48.8373 261.82 49.3556 260.98 49.6163C262.87 50.0477 263.866 51.3629 263.968 53.5618V62.9587C263.971 63.7636 263.811 64.5606 263.498 65.3008C263.193 66.0166 262.754 66.6661 262.205 67.2134C261.65 67.7572 261 68.1921 260.288 68.4961C259.556 68.817 258.766 68.9808 257.968 68.9771L245.979 69ZM251.973 38.5187V46.7188H257.968V38.5187H251.973ZM251.973 52.531V62.7411H257.968V52.531H251.973Z" fill="white"/>
<path d="M283.966 62.9415C283.968 63.7519 283.807 64.5543 283.495 65.3008C283.195 66.0273 282.753 66.6855 282.196 67.2363C281.643 67.7795 280.995 68.2144 280.285 68.519C279.553 68.8399 278.763 69.0037 277.966 69H271.971C271.175 69.0042 270.387 68.8404 269.657 68.519C268.944 68.2162 268.294 67.7811 267.74 67.2363C267.183 66.6868 266.743 66.0281 266.447 65.3008C266.132 64.5551 265.972 63.7522 265.976 62.9415V38.7649C265.967 37.9575 266.128 37.1574 266.447 36.4171C266.751 35.6961 267.19 35.041 267.74 34.4873C268.291 33.9335 268.942 33.4905 269.657 33.1817C270.388 32.8648 271.175 32.703 271.971 32.7064H277.966C278.763 32.7036 279.552 32.8653 280.285 33.1817C281.726 33.8057 282.875 34.9636 283.495 36.4171C283.811 37.1584 283.972 37.9578 283.966 38.7649V62.9415ZM277.966 62.701V38.5187H271.971V62.701H277.966Z" fill="white"/>
<path d="M297.963 32.6835L296.358 38.742H291.968V68.9771H285.968V32.6835H297.963Z" fill="white"/>
<path d="M318 62.9415C318.002 63.7519 317.842 64.5543 317.529 65.3008C317.233 66.0281 316.793 66.6868 316.236 67.2363C315.682 67.7801 315.032 68.215 314.319 68.519C313.59 68.8399 312.801 69.0037 312.005 69H306.005C305.209 69.0042 304.421 68.8404 303.691 68.519C302.979 68.215 302.329 67.7801 301.774 67.2363C301.217 66.6868 300.777 66.0281 300.481 65.3008C300.169 64.5543 300.009 63.7519 300.01 62.9415V38.7649C300.005 37.9578 300.165 37.1584 300.481 36.4171C300.786 35.6961 301.225 35.041 301.774 34.4873C302.327 33.9353 302.977 33.4925 303.691 33.1817C304.422 32.8648 305.21 32.703 306.005 32.7064H312.005C312.801 32.7035 313.588 32.8653 314.319 33.1817C315.033 33.4925 315.683 33.9353 316.236 34.4873C316.786 35.041 317.225 35.6961 317.529 36.4171C317.845 37.1584 318.006 37.9578 318 38.7649V62.9415ZM312.005 62.701V38.5187H306.005V62.701H312.005Z" fill="white"/>
</g>
<path d="M48.7268 64.1933H32.5249V62.2507H46.9309V43.5272H48.7268V64.1933Z" fill="white"/>
<path d="M67.4751 64.1933H51.2732V43.5272H53.0691V62.2507H67.4751V64.1933Z" fill="white"/>
<path d="M48.7268 102.193H46.9309V69.0787H32.5249V67.136H48.7268V102.193Z" fill="white"/>
<path d="M53.0691 102.193H51.2732V67.136H67.4751V69.0787H53.0691V102.193Z" fill="white"/>
<path d="M55.0127 39.3256V39.3768C54.7173 39.2873 54.4367 39.2106 54.1531 39.1403L54.0379 37.9006L53.8666 35.5426C53.7336 33.9674 53.6805 32.3954 53.5889 30.8234C53.4944 29.3121 53.4737 27.8008 53.4205 26.2927V26.1841C53.3225 25.2282 52.9131 24.3414 52.2656 23.6823C51.6126 23.0513 50.7677 22.7025 49.8921 22.7025C49.0166 22.7025 48.1717 23.0513 47.5187 23.6823C47.1933 24.0034 46.9285 24.3897 46.7389 24.8198C46.5331 25.2454 46.4038 25.7095 46.3579 26.1873V26.3087C46.3047 27.8136 46.2013 39.5429 46.2013 39.5429C45.9059 39.6324 45.0198 39.725 44.7716 39.8209L44.7244 26.1042V25.9413H44.745C44.8435 24.5354 45.4293 23.2218 46.3851 22.2632C47.3409 21.3047 48.5962 20.7722 49.8995 20.7722C51.2029 20.7722 52.4582 21.3047 53.414 22.2632C54.3698 23.2218 54.9556 24.5354 55.054 25.9413H55.0777V26.1042L55.054 33.2996C55.054 38.4662 60.5807 41.3098 60.5807 41.3098C58.7967 40.4319 56.9297 39.7665 55.0127 39.3256Z" fill="white"/>
<path d="M82.073 106.062H85.2897L82.8794 61.4583L82.073 106.062Z" fill="white"/>
<path d="M3.19608 62.7491H6.14994V58.4549H8.80842C17.989 55.2821 18.2844 43.8467 18.2844 43.8467H21.2176L21.2028 81.5045L21.2294 106.062H22.3105V35.7183H28.7913L28.8504 38.8559L28.8858 38.8176V38.9135L28.8474 38.8719L29.0808 46.8022L29.2019 50.7674L29.3614 54.7325H29.4825L31.8456 37.3191C33.9133 35.6385 36.622 32.5967 36.8051 28.1491H39.759V21.0207C39.759 21.0207 44.9903 17.9055 45.1143 13.2598H54.9389C55.0836 17.8927 60.3149 21.0207 60.3149 21.0207V28.1459H63.2688C63.5435 34.8556 68.2371 37.22 68.2371 37.22L70.4466 52.3809H70.5648L70.7272 50.9463L70.8454 46.9204L71.0817 38.8687L71.1378 35.7279L78.3866 35.7726V36.9612V106.065H80.8708L79.3348 81.5045V43.8467H81.8042C81.8042 43.8467 82.0996 55.2821 91.2832 58.4549H93.9416V62.7491H96.7921V106.062H99.9882V24.414C99.9882 17.9395 97.6106 11.7302 93.3785 7.15182C89.1464 2.5734 83.4062 0.000847328 77.4207 0H0C0 0 0.0354463 105.142 0 106.078H3.19608V62.7491Z" fill="white"/>
<path d="M30.5341 84.9233C30.5725 82.5302 30.5105 80.1306 30.5016 77.7439C30.4839 76.0568 30.3776 69.5547 30.3776 69.5547C30.3776 69.2352 30.3776 68.9477 30.3776 68.6409V67.7271C30.3776 67.4076 30.4307 67.1201 30.4544 66.8165L30.5341 65.9059C30.5696 65.6024 30.6375 65.3052 30.6848 65.0049C30.732 64.7045 30.7911 64.4042 30.8325 64.1007C30.8738 63.7971 30.9713 63.5064 31.0392 63.2092C31.6162 60.8053 32.5542 58.5202 33.8159 56.4451C35.1074 54.3204 36.7027 52.4309 38.542 50.8473C40.4512 49.2179 42.5814 47.9171 44.8574 46.9908L44.8013 46.7383C41.1466 47.6867 37.7824 49.6456 35.0381 52.4231C32.2937 55.2006 30.2633 58.7016 29.1458 62.583C28.4363 65.0961 28.1091 67.7173 28.1769 70.3439H28.1533V70.5644L28.1238 84.9233L28.1622 99.279L28.1799 106.053L30.5016 106.142L30.5341 84.9233Z" fill="white"/>
<path d="M71.4716 70.574V70.4654H71.445C71.532 67.8124 71.2137 65.1621 70.5027 62.6213C69.3939 58.7531 67.3755 55.2626 64.6453 52.4913C61.915 49.7201 58.5663 47.7631 54.927 46.8118L54.8975 46.9396C57.2455 47.7151 59.4598 48.9025 61.4521 50.4543C61.9247 50.8664 62.4298 51.2307 62.8729 51.678C63.316 52.1253 63.7856 52.5311 64.1933 53.0136C65.0477 53.9291 65.8256 54.9245 66.518 55.9882C67.9003 58.096 68.9337 60.4474 69.5722 62.9376C69.649 63.2572 69.7377 63.5543 69.8056 63.8642L69.9769 64.8228C70.0301 65.1423 70.1039 65.4458 70.1453 65.7621L70.2457 66.7207C70.2753 67.0402 70.3225 67.3597 70.3403 67.6792L70.3639 68.6377C70.3639 68.9573 70.3875 69.2768 70.3846 69.5963L70.3491 70.5548L70.3078 71.6731H70.3668C70.3196 76.1016 70.3078 80.53 70.3048 84.9617C70.3225 89.7543 70.3373 94.547 70.4141 99.3174C70.4348 101.573 70.485 103.832 70.5441 106.091H71.4657V99.3174L71.4716 70.574Z" fill="white"/>
<path d="M55.0303 33.2964L55.054 26.101V25.9381H55.0303C54.9319 24.5322 54.3461 23.2186 53.3903 22.26C52.4345 21.3015 51.1792 20.769 49.8758 20.769C48.5725 20.769 47.3172 21.3015 46.3614 22.26C45.4056 23.2186 44.8198 24.5322 44.7213 25.9381H44.7007V26.101L44.7479 39.8177C45.0079 39.7218 45.894 39.6292 46.1776 39.5397C46.1776 39.5397 46.281 27.8104 46.3342 26.3055V26.1841C46.3801 25.7063 46.5094 25.2422 46.7152 24.8166C46.9992 24.1755 47.4469 23.6357 48.0054 23.2609C48.5639 22.8861 49.2098 22.6919 49.867 22.7014C50.7409 22.694 51.5851 23.0444 52.2301 23.6823C52.8776 24.3414 53.287 25.2282 53.385 26.1841V26.2927C53.4382 27.8008 53.4589 29.3121 53.5534 30.8234C53.645 32.3954 53.6981 33.9674 53.8311 35.5426L54.0024 37.9006L54.1176 39.1403C54.413 39.2106 54.6877 39.2873 54.9772 39.3768V39.3256C56.886 39.7673 58.745 40.4315 60.5216 41.3066C60.5216 41.3066 55.0303 38.463 55.0303 33.2964Z" fill="white"/>
<path d="M21.2678 128H21.386C21.3874 127.988 21.3874 127.977 21.386 127.965H21.2649L21.2678 128Z" fill="white"/>
<path d="M100 106H0V109H100V106Z" fill="white"/>
<defs>
<clipPath id="clip0_221_2">
<rect width="192" height="57" fill="white" transform="translate(126 12)"/>
</clipPath>
</defs>
</svg>
