<svg width="24" height="24" viewBox="0 0 24 24" fill="none" xmlns="http://www.w3.org/2000/svg">
  <path d="M5.85714 6.25H4.14286V7.75H5.85714V6.25ZM4.14286 6.25C3.92564 6.25 3.75 6.07436 3.75 5.85714H2.25C2.25 6.90279 3.09722 7.75 4.14286 7.75V6.25ZM3.75 5.85714V4.14286H2.25V5.85714H3.75ZM3.75 4.14286C3.75 3.92564 3.92564 3.75 4.14286 3.75V2.25C3.09722 2.25 2.25 3.09722 2.25 4.14286H3.75ZM4.14286 3.75H5.85714V2.25H4.14286V3.75ZM5.85714 3.75C6.07436 3.75 6.25 3.92564 6.25 4.14286H7.75C7.75 3.09722 6.90279 2.25 5.85714 2.25V3.75ZM6.25 4.14286V5.85714H7.75V4.14286H6.25ZM6.25 5.85714C6.25 6.07436 6.07436 6.25 5.85714 6.25V7.75C6.90279 7.75 7.75 6.90279 7.75 5.85714H6.25ZM5.85714 13.25H4.14286V14.75H5.85714V13.25ZM4.14286 13.25C3.92564 13.25 3.75 13.0744 3.75 12.8571H2.25C2.25 13.9028 3.09722 14.75 4.14286 14.75V13.25ZM3.75 12.8571V11.1429H2.25V12.8571H3.75ZM3.75 11.1429C3.75 10.9256 3.92564 10.75 4.14286 10.75V9.25C3.09721 9.25 2.25 10.0972 2.25 11.1429H3.75ZM4.14286 10.75H5.85714V9.25H4.14286V10.75ZM5.85714 10.75C6.07436 10.75 6.25 10.9256 6.25 11.1429H7.75C7.75 10.0972 6.90279 9.25 5.85714 9.25V10.75ZM6.25 11.1429V12.8571H7.75V11.1429H6.25ZM6.25 12.8571C6.25 13.0744 6.07436 13.25 5.85714 13.25V14.75C6.90278 14.75 7.75 13.9028 7.75 12.8571H6.25ZM5.85714 20.25H4.14286V21.75H5.85714V20.25ZM4.14286 20.25C3.92564 20.25 3.75 20.0744 3.75 19.8571H2.25C2.25 20.9028 3.09722 21.75 4.14286 21.75V20.25ZM3.75 19.8571V18.1429H2.25V19.8571H3.75ZM3.75 18.1429C3.75 17.9256 3.92564 17.75 4.14286 17.75V16.25C3.09721 16.25 2.25 17.0972 2.25 18.1429H3.75ZM4.14286 17.75H5.85714V16.25H4.14286V17.75ZM5.85714 17.75C6.07436 17.75 6.25 17.9256 6.25 18.1429H7.75C7.75 17.0972 6.90279 16.25 5.85714 16.25V17.75ZM6.25 18.1429V19.8571H7.75V18.1429H6.25ZM6.25 19.8571C6.25 20.0744 6.07436 20.25 5.85714 20.25V21.75C6.90278 21.75 7.75 20.9028 7.75 19.8571H6.25ZM12.8571 6.25H11.1429V7.75H12.8571V6.25ZM11.1429 6.25C10.9256 6.25 10.75 6.07436 10.75 5.85714H9.25C9.25 6.90279 10.0972 7.75 11.1429 7.75V6.25ZM10.75 5.85714V4.14286H9.25V5.85714H10.75ZM10.75 4.14286C10.75 3.92564 10.9256 3.75 11.1429 3.75V2.25C10.0972 2.25 9.25 3.09721 9.25 4.14286H10.75ZM11.1429 3.75H12.8571V2.25H11.1429V3.75ZM12.8571 3.75C13.0744 3.75 13.25 3.92564 13.25 4.14286H14.75C14.75 3.09722 13.9028 2.25 12.8571 2.25V3.75ZM13.25 4.14286V5.85714H14.75V4.14286H13.25ZM13.25 5.85714C13.25 6.07436 13.0744 6.25 12.8571 6.25V7.75C13.9028 7.75 14.75 6.90278 14.75 5.85714H13.25ZM12.8571 13.25H11.1429V14.75H12.8571V13.25ZM11.1429 13.25C10.9256 13.25 10.75 13.0744 10.75 12.8571H9.25C9.25 13.9028 10.0972 14.75 11.1429 14.75V13.25ZM10.75 12.8571V11.1429H9.25V12.8571H10.75ZM10.75 11.1429C10.75 10.9256 10.9256 10.75 11.1429 10.75V9.25C10.0972 9.25 9.25 10.0972 9.25 11.1429H10.75ZM11.1429 10.75H12.8571V9.25H11.1429V10.75ZM12.8571 10.75C13.0744 10.75 13.25 10.9256 13.25 11.1429H14.75C14.75 10.0972 13.9028 9.25 12.8571 9.25V10.75ZM13.25 11.1429V12.8571H14.75V11.1429H13.25ZM13.25 12.8571C13.25 13.0744 13.0744 13.25 12.8571 13.25V14.75C13.9028 14.75 14.75 13.9028 14.75 12.8571H13.25ZM12.8571 20.25H11.1429V21.75H12.8571V20.25ZM11.1429 20.25C10.9256 20.25 10.75 20.0744 10.75 19.8571H9.25C9.25 20.9028 10.0972 21.75 11.1429 21.75V20.25ZM10.75 19.8571V18.1429H9.25V19.8571H10.75ZM10.75 18.1429C10.75 17.9256 10.9256 17.75 11.1429 17.75V16.25C10.0972 16.25 9.25 17.0972 9.25 18.1429H10.75ZM11.1429 17.75H12.8571V16.25H11.1429V17.75ZM12.8571 17.75C13.0744 17.75 13.25 17.9256 13.25 18.1429H14.75C14.75 17.0972 13.9028 16.25 12.8571 16.25V17.75ZM13.25 18.1429V19.8571H14.75V18.1429H13.25ZM13.25 19.8571C13.25 20.0744 13.0744 20.25 12.8571 20.25V21.75C13.9028 21.75 14.75 20.9028 14.75 19.8571H13.25ZM19.8571 6.25H18.1429V7.75H19.8571V6.25ZM18.1429 6.25C17.9256 6.25 17.75 6.07436 17.75 5.85714H16.25C16.25 6.90279 17.0972 7.75 18.1429 7.75V6.25ZM17.75 5.85714V4.14286H16.25V5.85714H17.75ZM17.75 4.14286C17.75 3.92564 17.9256 3.75 18.1429 3.75V2.25C17.0972 2.25 16.25 3.09721 16.25 4.14286H17.75ZM18.1429 3.75H19.8571V2.25H18.1429V3.75ZM19.8571 3.75C20.0744 3.75 20.25 3.92564 20.25 4.14286H21.75C21.75 3.09722 20.9028 2.25 19.8571 2.25V3.75ZM20.25 4.14286V5.85714H21.75V4.14286H20.25ZM20.25 5.85714C20.25 6.07436 20.0744 6.25 19.8571 6.25V7.75C20.9028 7.75 21.75 6.90278 21.75 5.85714H20.25ZM19.8571 13.25H18.1429V14.75H19.8571V13.25ZM18.1429 13.25C17.9256 13.25 17.75 13.0744 17.75 12.8571H16.25C16.25 13.9028 17.0972 14.75 18.1429 14.75V13.25ZM17.75 12.8571V11.1429H16.25V12.8571H17.75ZM17.75 11.1429C17.75 10.9256 17.9256 10.75 18.1429 10.75V9.25C17.0972 9.25 16.25 10.0972 16.25 11.1429H17.75ZM18.1429 10.75H19.8571V9.25H18.1429V10.75ZM19.8571 10.75C20.0744 10.75 20.25 10.9256 20.25 11.1429H21.75C21.75 10.0972 20.9028 9.25 19.8571 9.25V10.75ZM20.25 11.1429V12.8571H21.75V11.1429H20.25ZM20.25 12.8571C20.25 13.0744 20.0744 13.25 19.8571 13.25V14.75C20.9028 14.75 21.75 13.9028 21.75 12.8571H20.25ZM19.8571 20.25H18.1429V21.75H19.8571V20.25ZM18.1429 20.25C17.9256 20.25 17.75 20.0744 17.75 19.8571H16.25C16.25 20.9028 17.0972 21.75 18.1429 21.75V20.25ZM17.75 19.8571V18.1429H16.25V19.8571H17.75ZM17.75 18.1429C17.75 17.9256 17.9256 17.75 18.1429 17.75V16.25C17.0972 16.25 16.25 17.0972 16.25 18.1429H17.75ZM18.1429 17.75H19.8571V16.25H18.1429V17.75ZM19.8571 17.75C20.0744 17.75 20.25 17.9256 20.25 18.1429H21.75C21.75 17.0972 20.9028 16.25 19.8571 16.25V17.75ZM20.25 18.1429V19.8571H21.75V18.1429H20.25ZM20.25 19.8571C20.25 20.0744 20.0744 20.25 19.8571 20.25V21.75C20.9028 21.75 21.75 20.9028 21.75 19.8571H20.25Z"
    fill="#fff" />
</svg>
