<?xml version="1.0" encoding="UTF-8" standalone="no"?>
<svg
   xmlns:dc="http://purl.org/dc/elements/1.1/"
   xmlns:cc="http://creativecommons.org/ns#"
   xmlns:rdf="http://www.w3.org/1999/02/22-rdf-syntax-ns#"
   xmlns:svg="http://www.w3.org/2000/svg"
   xmlns="http://www.w3.org/2000/svg"
   xmlns:sodipodi="http://sodipodi.sourceforge.net/DTD/sodipodi-0.dtd"
   xmlns:inkscape="http://www.inkscape.org/namespaces/inkscape"
   version="1.1"
   id="svg2"
   xml:space="preserve"
   width="451.39334"
   height="585.53998"
   viewBox="0 0 451.39334 585.53998"
   sodipodi:docname="Лого.ai"><metadata
     id="metadata8"><rdf:RDF><cc:Work
         rdf:about=""><dc:format>image/svg+xml</dc:format><dc:type
           rdf:resource="http://purl.org/dc/dcmitype/StillImage" /></cc:Work></rdf:RDF></metadata><defs
     id="defs6"><radialGradient
       fx="0"
       fy="0"
       cx="0"
       cy="0"
       r="1"
       gradientUnits="userSpaceOnUse"
       gradientTransform="matrix(6.330987,-152.73506,-152.73506,-6.330987,168.55298,232.14395)"
       spreadMethod="pad"
       id="radialGradient28"><stop
         style="stop-opacity:1;stop-color:#FFFFFF"
         offset="0"
         id="stop24" /><stop
         style="stop-opacity:1;stop-color:#695fcc"
         offset="1"
         id="stop26" /></radialGradient><radialGradient
       fx="0"
       fy="0"
       cx="0"
       cy="0"
       r="1"
       gradientUnits="userSpaceOnUse"
       gradientTransform="matrix(6.330987,-152.73506,-152.73506,-6.330987,168.55298,232.14395)"
       spreadMethod="pad"
       id="radialGradient48"><stop
         style="stop-opacity:1;stop-color:#FFFFFF"
         offset="0"
         id="stop44" /><stop
         style="stop-opacity:1;stop-color:#695fcc"
         offset="1"
         id="stop46" /></radialGradient><radialGradient
       fx="0"
       fy="0"
       cx="0"
       cy="0"
       r="1"
       gradientUnits="userSpaceOnUse"
       gradientTransform="matrix(6.330987,-152.73506,-152.73506,-6.330987,168.55298,232.14395)"
       spreadMethod="pad"
       id="radialGradient68"><stop
         style="stop-opacity:1;stop-color:#FFFFFF"
         offset="0"
         id="stop64" /><stop
         style="stop-opacity:1;stop-color:#695fcc"
         offset="1"
         id="stop66" /></radialGradient><radialGradient
       fx="0"
       fy="0"
       cx="0"
       cy="0"
       r="1"
       gradientUnits="userSpaceOnUse"
       gradientTransform="matrix(6.330987,-152.73506,-152.73506,-6.330987,168.55298,232.14395)"
       spreadMethod="pad"
       id="radialGradient88"><stop
         style="stop-opacity:1;stop-color:#FFFFFF"
         offset="0"
         id="stop84" /><stop
         style="stop-opacity:1;stop-color:#695fcc"
         offset="1"
         id="stop86" /></radialGradient><linearGradient
       x1="0"
       y1="0"
       x2="1"
       y2="0"
       gradientUnits="userSpaceOnUse"
       gradientTransform="matrix(-3.9377625,440.24182,440.24182,3.9377625,8.928894,-1.8395697)"
       spreadMethod="pad"
       id="linearGradient114"><stop
         style="stop-opacity:1;stop-color:#FFFFFF"
         offset="0"
         id="stop104" /><stop
         style="stop-opacity:1;stop-color:#FFFFFF"
         offset="0.08014325"
         id="stop106" /><stop
         style="stop-opacity:1;stop-color:#FFFFFF"
         offset="0.514524"
         id="stop108" /><stop
         style="stop-opacity:1;stop-color:#FFFFFF"
         offset="0.71769071"
         id="stop110" /><stop
         style="stop-opacity:1;stop-color:#FFFFFF"
         offset="1"
         id="stop112" /></linearGradient><linearGradient
       x1="0"
       y1="0"
       x2="1"
       y2="0"
       gradientUnits="userSpaceOnUse"
       gradientTransform="matrix(-3.9377625,440.24182,440.24182,3.9377625,36.183754,-1.5957874)"
       spreadMethod="pad"
       id="linearGradient140"><stop
         style="stop-opacity:1;stop-color:#FFFFFF"
         offset="0"
         id="stop130" /><stop
         style="stop-opacity:1;stop-color:#FFFFFF"
         offset="0.08014325"
         id="stop132" /><stop
         style="stop-opacity:1;stop-color:#FFFFFF"
         offset="0.514524"
         id="stop134" /><stop
         style="stop-opacity:1;stop-color:#FFFFFF"
         offset="0.71769071"
         id="stop136" /><stop
         style="stop-opacity:1;stop-color:#FFFFFF"
         offset="1"
         id="stop138" /></linearGradient><linearGradient
       x1="0"
       y1="0"
       x2="1"
       y2="0"
       gradientUnits="userSpaceOnUse"
       gradientTransform="matrix(-3.9377625,440.24182,440.24182,3.9377625,62.082684,-1.3641332)"
       spreadMethod="pad"
       id="linearGradient166"><stop
         style="stop-opacity:1;stop-color:#FFFFFF"
         offset="0"
         id="stop156" /><stop
         style="stop-opacity:1;stop-color:#FFFFFF"
         offset="0.08014325"
         id="stop158" /><stop
         style="stop-opacity:1;stop-color:#FFFFFF"
         offset="0.514524"
         id="stop160" /><stop
         style="stop-opacity:1;stop-color:#FFFFFF"
         offset="0.71769071"
         id="stop162" /><stop
         style="stop-opacity:1;stop-color:#FFFFFF"
         offset="1"
         id="stop164" /></linearGradient><linearGradient
       x1="0"
       y1="0"
       x2="1"
       y2="0"
       gradientUnits="userSpaceOnUse"
       gradientTransform="matrix(-3.9377625,440.24182,440.24182,3.9377625,90.348938,-1.1113045)"
       spreadMethod="pad"
       id="linearGradient192"><stop
         style="stop-opacity:1;stop-color:#FFFFFF"
         offset="0"
         id="stop182" /><stop
         style="stop-opacity:1;stop-color:#FFFFFF"
         offset="0.08014325"
         id="stop184" /><stop
         style="stop-opacity:1;stop-color:#FFFFFF"
         offset="0.514524"
         id="stop186" /><stop
         style="stop-opacity:1;stop-color:#FFFFFF"
         offset="0.71769071"
         id="stop188" /><stop
         style="stop-opacity:1;stop-color:#FFFFFF"
         offset="1"
         id="stop190" /></linearGradient><linearGradient
       x1="0"
       y1="0"
       x2="1"
       y2="0"
       gradientUnits="userSpaceOnUse"
       gradientTransform="matrix(-3.9377625,440.24182,440.24182,3.9377625,118.57323,-0.8588511)"
       spreadMethod="pad"
       id="linearGradient218"><stop
         style="stop-opacity:1;stop-color:#FFFFFF"
         offset="0"
         id="stop208" /><stop
         style="stop-opacity:1;stop-color:#FFFFFF"
         offset="0.08014325"
         id="stop210" /><stop
         style="stop-opacity:1;stop-color:#FFFFFF"
         offset="0.514524"
         id="stop212" /><stop
         style="stop-opacity:1;stop-color:#FFFFFF"
         offset="0.71769071"
         id="stop214" /><stop
         style="stop-opacity:1;stop-color:#FFFFFF"
         offset="1"
         id="stop216" /></linearGradient><linearGradient
       x1="0"
       y1="0"
       x2="1"
       y2="0"
       gradientUnits="userSpaceOnUse"
       gradientTransform="matrix(-3.9377625,440.24182,440.24182,3.9377625,146.71313,-0.6071525)"
       spreadMethod="pad"
       id="linearGradient244"><stop
         style="stop-opacity:1;stop-color:#FFFFFF"
         offset="0"
         id="stop234" /><stop
         style="stop-opacity:1;stop-color:#FFFFFF"
         offset="0.08014325"
         id="stop236" /><stop
         style="stop-opacity:1;stop-color:#FFFFFF"
         offset="0.514524"
         id="stop238" /><stop
         style="stop-opacity:1;stop-color:#FFFFFF"
         offset="0.71769071"
         id="stop240" /><stop
         style="stop-opacity:1;stop-color:#FFFFFF"
         offset="1"
         id="stop242" /></linearGradient><linearGradient
       x1="0"
       y1="0"
       x2="1"
       y2="0"
       gradientUnits="userSpaceOnUse"
       gradientTransform="matrix(-3.9377625,440.24182,440.24182,3.9377625,195.59988,-0.1698829)"
       spreadMethod="pad"
       id="linearGradient270"><stop
         style="stop-opacity:1;stop-color:#FFFFFF"
         offset="0"
         id="stop260" /><stop
         style="stop-opacity:1;stop-color:#FFFFFF"
         offset="0.08014325"
         id="stop262" /><stop
         style="stop-opacity:1;stop-color:#FFFFFF"
         offset="0.514524"
         id="stop264" /><stop
         style="stop-opacity:1;stop-color:#FFFFFF"
         offset="0.71769071"
         id="stop266" /><stop
         style="stop-opacity:1;stop-color:#FFFFFF"
         offset="1"
         id="stop268" /></linearGradient><linearGradient
       x1="0"
       y1="0"
       x2="1"
       y2="0"
       gradientUnits="userSpaceOnUse"
       gradientTransform="matrix(-3.9377625,440.24182,440.24182,3.9377625,219.15234,0.0407832)"
       spreadMethod="pad"
       id="linearGradient296"><stop
         style="stop-opacity:1;stop-color:#FFFFFF"
         offset="0"
         id="stop286" /><stop
         style="stop-opacity:1;stop-color:#FFFFFF"
         offset="0.08014325"
         id="stop288" /><stop
         style="stop-opacity:1;stop-color:#FFFFFF"
         offset="0.514524"
         id="stop290" /><stop
         style="stop-opacity:1;stop-color:#FFFFFF"
         offset="0.71769071"
         id="stop292" /><stop
         style="stop-opacity:1;stop-color:#FFFFFF"
         offset="1"
         id="stop294" /></linearGradient><linearGradient
       x1="0"
       y1="0"
       x2="1"
       y2="0"
       gradientUnits="userSpaceOnUse"
       gradientTransform="matrix(-3.9377625,440.24182,440.24182,3.9377625,242.71536,0.2515437)"
       spreadMethod="pad"
       id="linearGradient322"><stop
         style="stop-opacity:1;stop-color:#FFFFFF"
         offset="0"
         id="stop312" /><stop
         style="stop-opacity:1;stop-color:#FFFFFF"
         offset="0.08014325"
         id="stop314" /><stop
         style="stop-opacity:1;stop-color:#FFFFFF"
         offset="0.514524"
         id="stop316" /><stop
         style="stop-opacity:1;stop-color:#FFFFFF"
         offset="0.71769071"
         id="stop318" /><stop
         style="stop-opacity:1;stop-color:#FFFFFF"
         offset="1"
         id="stop320" /></linearGradient><linearGradient
       x1="0"
       y1="0"
       x2="1"
       y2="0"
       gradientUnits="userSpaceOnUse"
       gradientTransform="matrix(-3.9377625,440.24182,440.24182,3.9377625,273.19907,0.5242065)"
       spreadMethod="pad"
       id="linearGradient348"><stop
         style="stop-opacity:1;stop-color:#FFFFFF"
         offset="0"
         id="stop338" /><stop
         style="stop-opacity:1;stop-color:#FFFFFF"
         offset="0.08014325"
         id="stop340" /><stop
         style="stop-opacity:1;stop-color:#FFFFFF"
         offset="0.514524"
         id="stop342" /><stop
         style="stop-opacity:1;stop-color:#FFFFFF"
         offset="0.71769071"
         id="stop344" /><stop
         style="stop-opacity:1;stop-color:#FFFFFF"
         offset="1"
         id="stop346" /></linearGradient><linearGradient
       x1="0"
       y1="0"
       x2="1"
       y2="0"
       gradientUnits="userSpaceOnUse"
       gradientTransform="matrix(-3.9377625,440.24182,440.24182,3.9377625,303.96179,0.7993649)"
       spreadMethod="pad"
       id="linearGradient374"><stop
         style="stop-opacity:1;stop-color:#FFFFFF"
         offset="0"
         id="stop364" /><stop
         style="stop-opacity:1;stop-color:#FFFFFF"
         offset="0.08014325"
         id="stop366" /><stop
         style="stop-opacity:1;stop-color:#FFFFFF"
         offset="0.514524"
         id="stop368" /><stop
         style="stop-opacity:1;stop-color:#FFFFFF"
         offset="0.71769071"
         id="stop370" /><stop
         style="stop-opacity:1;stop-color:#FFFFFF"
         offset="1"
         id="stop372" /></linearGradient><linearGradient
       x1="0"
       y1="0"
       x2="1"
       y2="0"
       gradientUnits="userSpaceOnUse"
       gradientTransform="matrix(-3.9377625,440.24182,440.24182,3.9377625,332.10168,1.0510635)"
       spreadMethod="pad"
       id="linearGradient400"><stop
         style="stop-opacity:1;stop-color:#FFFFFF"
         offset="0"
         id="stop390" /><stop
         style="stop-opacity:1;stop-color:#FFFFFF"
         offset="0.08014325"
         id="stop392" /><stop
         style="stop-opacity:1;stop-color:#FFFFFF"
         offset="0.514524"
         id="stop394" /><stop
         style="stop-opacity:1;stop-color:#FFFFFF"
         offset="0.71769071"
         id="stop396" /><stop
         style="stop-opacity:1;stop-color:#FFFFFF"
         offset="1"
         id="stop398" /></linearGradient><linearGradient
       x1="0"
       y1="0"
       x2="1"
       y2="0"
       gradientUnits="userSpaceOnUse"
       gradientTransform="matrix(-4.0133667,448.69437,448.69437,4.0133667,16.173258,-3.196332)"
       spreadMethod="pad"
       id="linearGradient426"><stop
         style="stop-opacity:1;stop-color:#FFFFFF"
         offset="0"
         id="stop416" /><stop
         style="stop-opacity:1;stop-color:#FFFFFF"
         offset="0.08014325"
         id="stop418" /><stop
         style="stop-opacity:1;stop-color:#FFFFFF"
         offset="0.514524"
         id="stop420" /><stop
         style="stop-opacity:1;stop-color:#FFFFFF"
         offset="0.71769071"
         id="stop422" /><stop
         style="stop-opacity:1;stop-color:#FFFFFF"
         offset="1"
         id="stop424" /></linearGradient><linearGradient
       x1="0"
       y1="0"
       x2="1"
       y2="0"
       gradientUnits="userSpaceOnUse"
       gradientTransform="matrix(-4.0133667,448.69437,448.69437,4.0133667,51.381092,-2.8814139)"
       spreadMethod="pad"
       id="linearGradient452"><stop
         style="stop-opacity:1;stop-color:#FFFFFF"
         offset="0"
         id="stop442" /><stop
         style="stop-opacity:1;stop-color:#FFFFFF"
         offset="0.08014325"
         id="stop444" /><stop
         style="stop-opacity:1;stop-color:#FFFFFF"
         offset="0.514524"
         id="stop446" /><stop
         style="stop-opacity:1;stop-color:#FFFFFF"
         offset="0.71769071"
         id="stop448" /><stop
         style="stop-opacity:1;stop-color:#FFFFFF"
         offset="1"
         id="stop450" /></linearGradient><linearGradient
       x1="0"
       y1="0"
       x2="1"
       y2="0"
       gradientUnits="userSpaceOnUse"
       gradientTransform="matrix(-4.0133667,448.69437,448.69437,4.0133667,86.685043,-2.5656362)"
       spreadMethod="pad"
       id="linearGradient478"><stop
         style="stop-opacity:1;stop-color:#FFFFFF"
         offset="0"
         id="stop468" /><stop
         style="stop-opacity:1;stop-color:#FFFFFF"
         offset="0.08014325"
         id="stop470" /><stop
         style="stop-opacity:1;stop-color:#FFFFFF"
         offset="0.514524"
         id="stop472" /><stop
         style="stop-opacity:1;stop-color:#FFFFFF"
         offset="0.71769071"
         id="stop474" /><stop
         style="stop-opacity:1;stop-color:#FFFFFF"
         offset="1"
         id="stop476" /></linearGradient><linearGradient
       x1="0"
       y1="0"
       x2="1"
       y2="0"
       gradientUnits="userSpaceOnUse"
       gradientTransform="matrix(-4.0133667,448.69437,448.69437,4.0133667,121.93993,-2.2502973)"
       spreadMethod="pad"
       id="linearGradient504"><stop
         style="stop-opacity:1;stop-color:#FFFFFF"
         offset="0"
         id="stop494" /><stop
         style="stop-opacity:1;stop-color:#FFFFFF"
         offset="0.08014325"
         id="stop496" /><stop
         style="stop-opacity:1;stop-color:#FFFFFF"
         offset="0.514524"
         id="stop498" /><stop
         style="stop-opacity:1;stop-color:#FFFFFF"
         offset="0.71769071"
         id="stop500" /><stop
         style="stop-opacity:1;stop-color:#FFFFFF"
         offset="1"
         id="stop502" /></linearGradient><linearGradient
       x1="0"
       y1="0"
       x2="1"
       y2="0"
       gradientUnits="userSpaceOnUse"
       gradientTransform="matrix(-4.0133667,448.69437,448.69437,4.0133667,157.43124,-1.9328437)"
       spreadMethod="pad"
       id="linearGradient530"><stop
         style="stop-opacity:1;stop-color:#FFFFFF"
         offset="0"
         id="stop520" /><stop
         style="stop-opacity:1;stop-color:#FFFFFF"
         offset="0.08014325"
         id="stop522" /><stop
         style="stop-opacity:1;stop-color:#FFFFFF"
         offset="0.514524"
         id="stop524" /><stop
         style="stop-opacity:1;stop-color:#FFFFFF"
         offset="0.71769071"
         id="stop526" /><stop
         style="stop-opacity:1;stop-color:#FFFFFF"
         offset="1"
         id="stop528" /></linearGradient><linearGradient
       x1="0"
       y1="0"
       x2="1"
       y2="0"
       gradientUnits="userSpaceOnUse"
       gradientTransform="matrix(-4.0133667,448.69437,448.69437,4.0133667,192.45172,-1.6196015)"
       spreadMethod="pad"
       id="linearGradient556"><stop
         style="stop-opacity:1;stop-color:#FFFFFF"
         offset="0"
         id="stop546" /><stop
         style="stop-opacity:1;stop-color:#FFFFFF"
         offset="0.08014325"
         id="stop548" /><stop
         style="stop-opacity:1;stop-color:#FFFFFF"
         offset="0.514524"
         id="stop550" /><stop
         style="stop-opacity:1;stop-color:#FFFFFF"
         offset="0.71769071"
         id="stop552" /><stop
         style="stop-opacity:1;stop-color:#FFFFFF"
         offset="1"
         id="stop554" /></linearGradient><linearGradient
       x1="0"
       y1="0"
       x2="1"
       y2="0"
       gradientUnits="userSpaceOnUse"
       gradientTransform="matrix(-4.0133667,448.69437,448.69437,4.0133667,227.65955,-1.3046836)"
       spreadMethod="pad"
       id="linearGradient582"><stop
         style="stop-opacity:1;stop-color:#FFFFFF"
         offset="0"
         id="stop572" /><stop
         style="stop-opacity:1;stop-color:#FFFFFF"
         offset="0.08014325"
         id="stop574" /><stop
         style="stop-opacity:1;stop-color:#FFFFFF"
         offset="0.514524"
         id="stop576" /><stop
         style="stop-opacity:1;stop-color:#FFFFFF"
         offset="0.71769071"
         id="stop578" /><stop
         style="stop-opacity:1;stop-color:#FFFFFF"
         offset="1"
         id="stop580" /></linearGradient><linearGradient
       x1="0"
       y1="0"
       x2="1"
       y2="0"
       gradientUnits="userSpaceOnUse"
       gradientTransform="matrix(-4.0133667,448.69437,448.69437,4.0133667,262.96149,-0.9889237)"
       spreadMethod="pad"
       id="linearGradient608"><stop
         style="stop-opacity:1;stop-color:#FFFFFF"
         offset="0"
         id="stop598" /><stop
         style="stop-opacity:1;stop-color:#FFFFFF"
         offset="0.08014325"
         id="stop600" /><stop
         style="stop-opacity:1;stop-color:#FFFFFF"
         offset="0.514524"
         id="stop602" /><stop
         style="stop-opacity:1;stop-color:#FFFFFF"
         offset="0.71769071"
         id="stop604" /><stop
         style="stop-opacity:1;stop-color:#FFFFFF"
         offset="1"
         id="stop606" /></linearGradient><linearGradient
       x1="0"
       y1="0"
       x2="1"
       y2="0"
       gradientUnits="userSpaceOnUse"
       gradientTransform="matrix(-4.0133667,448.69437,448.69437,4.0133667,292.93106,-0.7208597)"
       spreadMethod="pad"
       id="linearGradient634"><stop
         style="stop-opacity:1;stop-color:#FFFFFF"
         offset="0"
         id="stop624" /><stop
         style="stop-opacity:1;stop-color:#FFFFFF"
         offset="0.08014325"
         id="stop626" /><stop
         style="stop-opacity:1;stop-color:#FFFFFF"
         offset="0.514524"
         id="stop628" /><stop
         style="stop-opacity:1;stop-color:#FFFFFF"
         offset="0.71769071"
         id="stop630" /><stop
         style="stop-opacity:1;stop-color:#FFFFFF"
         offset="1"
         id="stop632" /></linearGradient><linearGradient
       x1="0"
       y1="0"
       x2="1"
       y2="0"
       gradientUnits="userSpaceOnUse"
       gradientTransform="matrix(-4.0133667,448.69437,448.69437,4.0133667,322.97092,-0.4521668)"
       spreadMethod="pad"
       id="linearGradient660"><stop
         style="stop-opacity:1;stop-color:#FFFFFF"
         offset="0"
         id="stop650" /><stop
         style="stop-opacity:1;stop-color:#FFFFFF"
         offset="0.08014325"
         id="stop652" /><stop
         style="stop-opacity:1;stop-color:#FFFFFF"
         offset="0.514524"
         id="stop654" /><stop
         style="stop-opacity:1;stop-color:#FFFFFF"
         offset="0.71769071"
         id="stop656" /><stop
         style="stop-opacity:1;stop-color:#FFFFFF"
         offset="1"
         id="stop658" /></linearGradient><linearGradient
       x1="0"
       y1="0"
       x2="1"
       y2="0"
       gradientUnits="userSpaceOnUse"
       gradientTransform="matrix(0,387.78586,387.78586,0,283.29391,46.385929)"
       spreadMethod="pad"
       id="linearGradient686"><stop
         style="stop-opacity:1;stop-color:#FFFFFF"
         offset="0"
         id="stop676" /><stop
         style="stop-opacity:1;stop-color:#FFFFFF"
         offset="0.08014325"
         id="stop678" /><stop
         style="stop-opacity:1;stop-color:#FFFFFF"
         offset="0.514524"
         id="stop680" /><stop
         style="stop-opacity:1;stop-color:#FFFFFF"
         offset="0.71769071"
         id="stop682" /><stop
         style="stop-opacity:1;stop-color:#FFFFFF"
         offset="1"
         id="stop684" /></linearGradient><linearGradient
       x1="0"
       y1="0"
       x2="1"
       y2="0"
       gradientUnits="userSpaceOnUse"
       gradientTransform="matrix(0,387.78586,387.78586,0,169.27235,46.385929)"
       spreadMethod="pad"
       id="linearGradient712"><stop
         style="stop-opacity:1;stop-color:#FFFFFF"
         offset="0"
         id="stop702" /><stop
         style="stop-opacity:1;stop-color:#FFFFFF"
         offset="0.08014325"
         id="stop704" /><stop
         style="stop-opacity:1;stop-color:#FFFFFF"
         offset="0.514524"
         id="stop706" /><stop
         style="stop-opacity:1;stop-color:#FFFFFF"
         offset="0.71769071"
         id="stop708" /><stop
         style="stop-opacity:1;stop-color:#FFFFFF"
         offset="1"
         id="stop710" /></linearGradient><linearGradient
       x1="0"
       y1="0"
       x2="1"
       y2="0"
       gradientUnits="userSpaceOnUse"
       gradientTransform="matrix(0,387.78586,387.78586,0,123.63922,46.385929)"
       spreadMethod="pad"
       id="linearGradient738"><stop
         style="stop-opacity:1;stop-color:#FFFFFF"
         offset="0"
         id="stop728" /><stop
         style="stop-opacity:1;stop-color:#FFFFFF"
         offset="0.08014325"
         id="stop730" /><stop
         style="stop-opacity:1;stop-color:#FFFFFF"
         offset="0.514524"
         id="stop732" /><stop
         style="stop-opacity:1;stop-color:#FFFFFF"
         offset="0.71769071"
         id="stop734" /><stop
         style="stop-opacity:1;stop-color:#FFFFFF"
         offset="1"
         id="stop736" /></linearGradient><linearGradient
       x1="0"
       y1="0"
       x2="1"
       y2="0"
       gradientUnits="userSpaceOnUse"
       gradientTransform="matrix(0,387.78586,387.78586,0,213.89116,46.385929)"
       spreadMethod="pad"
       id="linearGradient764"><stop
         style="stop-opacity:1;stop-color:#FFFFFF"
         offset="0"
         id="stop754" /><stop
         style="stop-opacity:1;stop-color:#FFFFFF"
         offset="0.08014325"
         id="stop756" /><stop
         style="stop-opacity:1;stop-color:#FFFFFF"
         offset="0.514524"
         id="stop758" /><stop
         style="stop-opacity:1;stop-color:#FFFFFF"
         offset="0.71769071"
         id="stop760" /><stop
         style="stop-opacity:1;stop-color:#FFFFFF"
         offset="1"
         id="stop762" /></linearGradient><linearGradient
       x1="0"
       y1="0"
       x2="1"
       y2="0"
       gradientUnits="userSpaceOnUse"
       gradientTransform="matrix(0,387.78586,387.78586,0,178.17905,46.385929)"
       spreadMethod="pad"
       id="linearGradient790"><stop
         style="stop-opacity:1;stop-color:#FFFFFF"
         offset="0"
         id="stop780" /><stop
         style="stop-opacity:1;stop-color:#FFFFFF"
         offset="0.08014325"
         id="stop782" /><stop
         style="stop-opacity:1;stop-color:#FFFFFF"
         offset="0.514524"
         id="stop784" /><stop
         style="stop-opacity:1;stop-color:#FFFFFF"
         offset="0.71769071"
         id="stop786" /><stop
         style="stop-opacity:1;stop-color:#FFFFFF"
         offset="1"
         id="stop788" /></linearGradient><clipPath
       clipPathUnits="userSpaceOnUse"
       id="clipPath800"><path
         d="M 0,439.155 H 338.545 V 0 H 0 Z"
         id="path798" /></clipPath></defs><sodipodi:namedview
     pagecolor="#ffffff"
     bordercolor="#666666"
     borderopacity="1"
     objecttolerance="10"
     gridtolerance="10"
     guidetolerance="10"
     inkscape:pageopacity="0"
     inkscape:pageshadow="2"
     inkscape:window-width="640"
     inkscape:window-height="480"
     id="namedview4" /><g
     id="g10"
     inkscape:groupmode="layer"
     inkscape:label="Лого"
     transform="matrix(1.3333333,0,0,-1.3333333,0,585.54)"><g
       id="g12"><g
         id="g14"><g
           id="g20"><g
             id="g22"><path
               d="m 164.963,238.245 h -54.852 v 6.083 h 48.769 v 58.595 h 6.083 z"
               style="fill:url(#radialGradient28);stroke:none"
               id="path30" /></g></g></g></g><g
       id="g32"><g
         id="g34"><g
           id="g40"><g
             id="g42"><path
               d="m 228.434,238.245 h -54.853 v 64.678 h 6.083 v -58.595 h 48.77 z"
               style="fill:url(#radialGradient48);stroke:none"
               id="path50" /></g></g></g></g><g
       id="g52"><g
         id="g54"><g
           id="g60"><g
             id="g62"><path
               d="m 164.963,119.32 h -6.083 v 103.634 h -48.769 v 6.084 h 54.852 z"
               style="fill:url(#radialGradient68);stroke:none"
               id="path70" /></g></g></g></g><g
       id="g72"><g
         id="g74"><g
           id="g80"><g
             id="g82"><path
               d="m 179.664,119.32 h -6.083 v 109.718 h 54.853 v -6.084 h -48.77 z"
               style="fill:url(#radialGradient88);stroke:none"
               id="path90" /></g></g></g></g><g
       id="g92"><g
         id="g94"><g
           id="g100"><g
             id="g102"><path
               d="M 9.428,99.54 V 75.97 H 4.714 V 99.54 H 0 V 71.287 h 11.794 v -3.452 l 4.713,-1.262 v 9.428 H 14.142 V 99.54 Z"
               style="fill:url(#linearGradient114);stroke:none"
               id="path116" /></g></g></g></g><g
       id="g118"><g
         id="g120"><g
           id="g126"><g
             id="g128"><path
               d="M 35.406,76.001 H 40.12 L 38.858,71.288 H 30.691 V 99.54 h 9.429 l -1.262,-4.713 h -3.452 v -6.985 h 4.462 l -1.262,-4.446 h -3.2 z"
               style="fill:url(#linearGradient140);stroke:none"
               id="path142" /></g></g></g></g><g
       id="g144"><g
         id="g146"><g
           id="g152"><g
             id="g154"><path
               d="M 54.257,99.54 V 71.287 H 58.97 V 82.56 h 4.715 c 0.64,0 1.247,0.124 1.821,0.37 v 0 c 0.574,0.247 1.073,0.582 1.505,1.002 v 0 c 0.431,0.42 0.771,0.916 1.016,1.49 v 0 c 0.248,0.574 0.372,1.18 0.372,1.82 v 0 7.585 c 0,0.652 -0.124,1.261 -0.372,1.829 v 0 c -0.245,0.567 -0.585,1.065 -1.016,1.497 v 0 c -0.432,0.431 -0.931,0.771 -1.505,1.017 v 0 c -0.574,0.247 -1.181,0.37 -1.821,0.37 v 0 z m 4.713,-4.525 h 4.715 V 87.432 H 58.97 Z"
               style="fill:url(#linearGradient166);stroke:none"
               id="path168" /></g></g></g></g><g
       id="g170"><g
         id="g172"><g
           id="g178"><g
             id="g180"><path
               d="M 91.932,99.54 87.218,90.112 V 99.54 H 82.503 V 71.287 h 4.715 v 9.429 l 4.714,-9.429 h 4.714 l -7.064,14.111 7.064,14.142 z"
               style="fill:url(#linearGradient192);stroke:none"
               id="path194" /></g></g></g></g><g
       id="g196"><g
         id="g198"><g
           id="g204"><g
             id="g206"><path
               d="M 110.751,99.54 V 71.287 h 9.428 c 0.641,0 1.248,0.124 1.821,0.371 v 0 c 0.574,0.246 1.075,0.58 1.506,1.001 v 0 c 0.432,0.419 0.771,0.917 1.017,1.49 v 0 c 0.247,0.574 0.371,1.18 0.371,1.821 v 0 7.316 c -0.073,1.712 -0.858,2.737 -2.35,3.073 v 0 c 1.429,0.515 2.214,1.536 2.35,3.06 v 0 5.408 c 0,0.652 -0.124,1.261 -0.371,1.829 v 0 c -0.246,0.567 -0.585,1.065 -1.017,1.497 v 0 c -0.431,0.431 -0.932,0.771 -1.506,1.017 v 0 c -0.573,0.247 -1.18,0.37 -1.821,0.37 v 0 z m 4.714,-4.525 h 4.713 V 88.63 h -4.713 z m 0,-10.91 h 4.713 v -7.946 h -4.713 z"
               style="fill:url(#linearGradient218);stroke:none"
               id="path220" /></g></g></g></g><g
       id="g222"><g
         id="g224"><g
           id="g230"><g
             id="g232"><path
               d="m 143.713,99.54 -4.714,-28.253 h 4.714 l 0.599,4.714 h 3.532 l 0.583,-4.714 h 4.714 l -4.714,28.253 z m 2.364,-9.428 1.167,-9.396 h -2.349 z"
               style="fill:url(#linearGradient244);stroke:none"
               id="path246" /></g></g></g></g><g
       id="g248"><g
         id="g250"><g
           id="g256"><g
             id="g258"><path
               d="M 187.783,99.54 V 71.287 h 4.715 V 82.56 h 4.714 c 0.641,0 1.249,0.124 1.821,0.37 v 0 c 0.573,0.247 1.075,0.582 1.507,1.002 v 0 c 0.431,0.42 0.77,0.916 1.016,1.49 v 0 c 0.246,0.574 0.37,1.18 0.37,1.82 v 0 7.585 c 0,0.652 -0.124,1.261 -0.37,1.829 v 0 c -0.246,0.567 -0.585,1.065 -1.016,1.497 v 0 c -0.432,0.431 -0.934,0.771 -1.507,1.017 v 0 c -0.572,0.247 -1.18,0.37 -1.821,0.37 v 0 z m 4.715,-4.525 h 4.714 v -7.583 h -4.714 z"
               style="fill:url(#linearGradient270);stroke:none"
               id="path272" /></g></g></g></g><g
       id="g274"><g
         id="g276"><g
           id="g282"><g
             id="g284"><path
               d="m 216.031,71.287 h 4.714 V 99.54 h -4.714 z"
               style="fill:url(#linearGradient296);stroke:none"
               id="path298" /></g></g></g></g><g
       id="g300"><g
         id="g302"><g
           id="g308"><g
             id="g310"><path
               d="m 239.596,99.54 c -0.64,0 -1.247,-0.123 -1.821,-0.37 v 0 c -0.574,-0.246 -1.073,-0.586 -1.505,-1.017 v 0 c -0.431,-0.432 -0.771,-0.93 -1.016,-1.497 v 0 c -0.248,-0.568 -0.372,-1.177 -0.372,-1.829 v 0 -4.715 h 4.714 v 4.903 h 4.715 V 88.63 h -3.279 v -4.525 h 3.279 v -7.946 h -4.715 v 4.557 h -4.714 v -4.715 c 0,-0.64 0.124,-1.253 0.372,-1.836 v 0 c 0.245,-0.584 0.585,-1.087 1.016,-1.506 v 0 c 0.432,-0.421 0.931,-0.755 1.505,-1.001 v 0 c 0.574,-0.247 1.181,-0.371 1.821,-0.371 v 0 h 4.715 c 0.64,0 1.247,0.124 1.82,0.371 v 0 c 0.574,0.246 1.075,0.58 1.506,1.001 v 0 c 0.432,0.419 0.77,0.917 1.018,1.49 v 0 c 0.245,0.574 0.37,1.18 0.37,1.821 v 0 7.316 c -0.073,1.712 -0.857,2.737 -2.349,3.073 v 0 c 1.429,0.515 2.213,1.536 2.349,3.06 v 0 5.408 c 0,0.652 -0.125,1.261 -0.37,1.829 v 0 c -0.248,0.567 -0.586,1.065 -1.018,1.497 v 0 c -0.431,0.431 -0.932,0.771 -1.506,1.017 v 0 c -0.573,0.247 -1.18,0.37 -1.82,0.37 v 0 z"
               style="fill:url(#linearGradient322);stroke:none"
               id="path324" /></g></g></g></g><g
       id="g326"><g
         id="g328"><g
           id="g334"><g
             id="g336"><path
               d="m 270.21,99.54 c -0.641,0 -1.249,-0.123 -1.822,-0.37 v 0 c -0.573,-0.246 -1.075,-0.586 -1.506,-1.017 v 0 c -0.432,-0.432 -0.77,-0.93 -1.017,-1.497 v 0 c -0.246,-0.568 -0.37,-1.177 -0.37,-1.829 v 0 -18.826 h -2.365 v -9.428 l 4.714,1.262 v 3.452 h 9.444 v -3.452 l 4.714,-1.262 v 9.428 h -2.365 V 99.54 Z m 0,-4.525 h 4.713 V 76.002 h -4.713 z"
               style="fill:url(#linearGradient348);stroke:none"
               id="path350" /></g></g></g></g><g
       id="g352"><g
         id="g354"><g
           id="g360"><g
             id="g362"><path
               d="M 296.155,99.54 V 71.287 h 9.428 c 0.64,0 1.248,0.124 1.821,0.371 v 0 c 0.574,0.246 1.074,0.58 1.506,1.001 v 0 c 0.431,0.419 0.77,0.917 1.016,1.49 v 0 c 0.247,0.574 0.371,1.18 0.371,1.821 v 0 7.316 c -0.073,1.712 -0.857,2.737 -2.349,3.073 v 0 c 1.429,0.515 2.214,1.536 2.349,3.06 v 0 5.408 c 0,0.652 -0.124,1.261 -0.371,1.829 v 0 c -0.246,0.567 -0.585,1.065 -1.016,1.497 v 0 c -0.432,0.431 -0.932,0.771 -1.506,1.017 v 0 c -0.573,0.247 -1.181,0.37 -1.821,0.37 v 0 z m 4.713,-4.525 h 4.715 V 88.63 h -4.715 z m 0,-10.91 h 4.715 v -7.946 h -4.715 z"
               style="fill:url(#linearGradient374);stroke:none"
               id="path376" /></g></g></g></g><g
       id="g378"><g
         id="g380"><g
           id="g386"><g
             id="g388"><path
               d="m 329.116,99.54 -4.715,-28.253 h 4.715 l 0.599,4.714 h 3.532 l 0.584,-4.714 h 4.713 l -4.713,28.253 z m 2.365,-9.428 1.167,-9.396 h -2.349 z"
               style="fill:url(#linearGradient400);stroke:none"
               id="path402" /></g></g></g></g><g
       id="g404"><g
         id="g406"><g
           id="g412"><g
             id="g414"><path
               d="M 21.147,63.373 15.879,47.601 10.574,63.373 H 0 L 10.574,31.722 0,0 H 10.574 L 15.879,15.879 21.147,0 H 31.722 L 21.147,31.722 31.722,63.373 Z"
               style="fill:url(#linearGradient426);stroke:none"
               id="path428" /></g></g></g></g><g
       id="g430"><g
         id="g432"><g
           id="g438"><g
             id="g440"><path
               d="M 35.258,63.373 V 0 h 10.574 v 25.285 h 10.573 c 1.438,0 2.8,0.277 4.086,0.831 v 0 c 1.285,0.555 2.41,1.304 3.376,2.246 v 0 c 0.968,0.942 1.727,2.057 2.282,3.342 v 0 c 0.554,1.286 0.831,2.646 0.831,4.084 v 0 17.011 c 0,1.462 -0.277,2.828 -0.831,4.102 v 0 c -0.555,1.273 -1.314,2.393 -2.282,3.36 v 0 c -0.966,0.966 -2.091,1.727 -3.376,2.28 v 0 c -1.286,0.554 -2.648,0.832 -4.086,0.832 v 0 z M 45.832,53.223 H 56.405 V 36.214 H 45.832 Z"
               style="fill:url(#linearGradient452);stroke:none"
               id="path454" /></g></g></g></g><g
       id="g456"><g
         id="g458"><g
           id="g464"><g
             id="g466"><path
               d="M 94.848,63.373 81.091,31.652 V 63.373 H 70.517 V 0 h 7.746 L 91.664,31.652 V 0 h 10.576 v 63.373 z"
               style="fill:url(#linearGradient478);stroke:none"
               id="path480" /></g></g></g></g><g
       id="g482"><g
         id="g484"><g
           id="g490"><g
             id="g492"><path
               d="m 116.349,63.373 c -1.439,0 -2.8,-0.278 -4.084,-0.832 v 0 c -1.285,-0.553 -2.412,-1.314 -3.378,-2.28 v 0 c -0.966,-0.967 -1.728,-2.087 -2.28,-3.36 v 0 c -0.555,-1.274 -0.832,-2.64 -0.832,-4.102 v 0 -42.225 c 0,-1.439 0.277,-2.811 0.832,-4.12 v 0 c 0.552,-1.308 1.314,-2.435 2.28,-3.376 v 0 c 0.966,-0.945 2.093,-1.694 3.378,-2.246 v 0 C 113.549,0.277 114.91,0 116.349,0 v 0 h 10.574 c 1.438,0 2.799,0.277 4.085,0.832 v 0 c 1.286,0.552 2.411,1.301 3.376,2.246 v 0 c 0.968,0.941 1.727,2.068 2.283,3.376 v 0 c 0.553,1.309 0.83,2.681 0.83,4.12 v 0 10.573 H 126.923 V 10.574 h -10.574 v 42.225 h 10.574 V 42.226 h 10.574 v 10.573 c 0,1.462 -0.277,2.828 -0.83,4.102 v 0 c -0.556,1.273 -1.315,2.393 -2.283,3.36 v 0 c -0.965,0.966 -2.09,1.727 -3.376,2.28 v 0 c -1.286,0.554 -2.647,0.832 -4.085,0.832 v 0 z"
               style="fill:url(#linearGradient504);stroke:none"
               id="path506" /></g></g></g></g><g
       id="g508"><g
         id="g510"><g
           id="g516"><g
             id="g518"><path
               d="M 143.86,63.373 141.033,52.87 h 10.573 V 0 h 10.574 v 52.87 h 7.745 l 2.83,10.503 z"
               style="fill:url(#linearGradient530);stroke:none"
               id="path532" /></g></g></g></g><g
       id="g534"><g
         id="g536"><g
           id="g542"><g
             id="g544"><path
               d="m 186.866,63.373 c -1.438,0 -2.8,-0.278 -4.083,-0.832 v 0 c -1.286,-0.553 -2.412,-1.314 -3.38,-2.28 v 0 c -0.965,-0.967 -1.727,-2.087 -2.279,-3.36 v 0 c -0.554,-1.274 -0.832,-2.64 -0.832,-4.102 v 0 -42.225 c 0,-1.439 0.278,-2.811 0.832,-4.12 v 0 c 0.552,-1.308 1.314,-2.435 2.279,-3.376 v 0 c 0.968,-0.945 2.094,-1.694 3.38,-2.246 v 0 C 184.066,0.277 185.428,0 186.866,0 v 0 h 10.574 c 1.438,0 2.8,0.277 4.084,0.832 v 0 c 1.287,0.552 2.412,1.301 3.378,2.246 v 0 c 0.968,0.941 1.727,2.068 2.281,3.376 v 0 c 0.555,1.309 0.832,2.681 0.832,4.12 v 0 42.225 c 0,1.462 -0.277,2.828 -0.832,4.102 v 0 c -0.554,1.273 -1.313,2.393 -2.281,3.36 v 0 c -0.966,0.966 -2.091,1.727 -3.378,2.28 v 0 c -1.284,0.554 -2.646,0.832 -4.084,0.832 v 0 z m 0,-10.15 H 197.44 V 11 h -10.574 z"
               style="fill:url(#linearGradient556);stroke:none"
               id="path558" /></g></g></g></g><g
       id="g560"><g
         id="g562"><g
           id="g568"><g
             id="g570"><path
               d="M 211.55,63.373 V 0 h 21.148 c 1.437,0 2.8,0.277 4.085,0.832 v 0 c 1.286,0.552 2.41,1.301 3.377,2.246 v 0 c 0.967,0.941 1.727,2.057 2.281,3.342 v 0 c 0.554,1.283 0.832,2.645 0.832,4.083 v 0 16.409 c -0.167,3.842 -1.923,6.142 -5.271,6.895 v 0 c 3.207,1.155 4.963,3.443 5.271,6.862 v 0 12.13 c 0,1.462 -0.278,2.828 -0.832,4.102 v 0 c -0.554,1.273 -1.314,2.393 -2.281,3.36 v 0 c -0.967,0.966 -2.091,1.727 -3.377,2.28 v 0 c -1.285,0.554 -2.648,0.832 -4.085,0.832 v 0 z m 10.574,-10.15 h 10.574 V 38.901 h -10.574 z m 0,-24.472 h 10.574 V 10.927 h -10.574 z"
               style="fill:url(#linearGradient582);stroke:none"
               id="path584" /></g></g></g></g><g
       id="g586"><g
         id="g588"><g
           id="g594"><g
             id="g596"><path
               d="m 257.381,63.373 c -1.438,0 -2.8,-0.278 -4.082,-0.832 v 0 c -1.287,-0.553 -2.414,-1.314 -3.38,-2.28 v 0 c -0.966,-0.967 -1.727,-2.087 -2.28,-3.36 v 0 c -0.554,-1.274 -0.831,-2.64 -0.831,-4.102 v 0 -42.225 c 0,-1.439 0.277,-2.811 0.831,-4.12 v 0 c 0.553,-1.308 1.314,-2.435 2.28,-3.376 v 0 c 0.966,-0.945 2.093,-1.694 3.38,-2.246 v 0 C 254.581,0.277 255.943,0 257.381,0 v 0 h 10.573 c 1.439,0 2.801,0.277 4.086,0.832 v 0 c 1.286,0.552 2.411,1.301 3.377,2.246 v 0 c 0.968,0.941 1.728,2.068 2.282,3.376 v 0 c 0.554,1.309 0.832,2.681 0.832,4.12 v 0 42.225 c 0,1.462 -0.278,2.828 -0.832,4.102 v 0 c -0.554,1.273 -1.314,2.393 -2.282,3.36 v 0 c -0.966,0.966 -2.091,1.727 -3.377,2.28 v 0 c -1.285,0.554 -2.647,0.832 -4.086,0.832 v 0 z m 0,-10.15 h 10.573 V 11 h -10.573 z"
               style="fill:url(#linearGradient608);stroke:none"
               id="path610" /></g></g></g></g><g
       id="g612"><g
         id="g614"><g
           id="g620"><g
             id="g622"><path
               d="M 282.068,63.373 V 0 h 10.573 v 52.799 h 7.745 l 2.828,10.574 z"
               style="fill:url(#linearGradient634);stroke:none"
               id="path636" /></g></g></g></g><g
       id="g638"><g
         id="g640"><g
           id="g646"><g
             id="g648"><path
               d="m 317.396,63.373 c -1.438,0 -2.8,-0.278 -4.084,-0.832 v 0 c -1.286,-0.553 -2.412,-1.314 -3.378,-2.28 v 0 c -0.967,-0.967 -1.727,-2.087 -2.281,-3.36 v 0 c -0.554,-1.274 -0.831,-2.64 -0.831,-4.102 v 0 -42.225 c 0,-1.439 0.277,-2.811 0.831,-4.12 v 0 c 0.554,-1.308 1.314,-2.435 2.281,-3.376 v 0 c 0.966,-0.945 2.092,-1.694 3.378,-2.246 v 0 C 314.596,0.277 315.958,0 317.396,0 v 0 h 10.573 c 1.438,0 2.8,0.277 4.086,0.832 v 0 c 1.285,0.552 2.41,1.301 3.376,2.246 v 0 c 0.969,0.941 1.728,2.068 2.282,3.376 v 0 c 0.554,1.309 0.831,2.681 0.831,4.12 v 0 42.225 c 0,1.462 -0.277,2.828 -0.831,4.102 v 0 c -0.554,1.273 -1.313,2.393 -2.282,3.36 v 0 c -0.966,0.966 -2.091,1.727 -3.376,2.28 v 0 c -1.286,0.554 -2.648,0.832 -4.086,0.832 v 0 z m 0,-10.15 h 10.573 V 11 h -10.573 z"
               style="fill:url(#linearGradient660);stroke:none"
               id="path662" /></g></g></g></g><g
       id="g664"><g
         id="g666"><g
           id="g672"><g
             id="g674"><path
               d="m 277.852,107.206 h 10.885 l -8.157,139.602 z"
               style="fill:url(#linearGradient686);stroke:none"
               id="path688" /></g></g></g></g><g
       id="g690"><g
         id="g692"><g
           id="g698"><g
             id="g700"><path
               d="m 0,439.155 v -324.2 c 0,-2.62 0.176,-5.195 0.434,-7.749 v 0 h 10.391 v 89.782 29.232 16.546 h 10.029 v 13.441 h 9.024 c 31.086,9.931 32.089,45.722 32.089,45.722 v 0 h 9.927 L 71.846,184.06 71.927,107.206 h 2.595 c 0.028,1.366 0.053,2.732 0.082,4.098 v 0 l 0.715,36.378 0.238,36.378 0.238,36.377 c 0.152,12.126 -0.095,24.252 -0.124,36.378 v 0 l -0.24,36.378 -0.127,18.189 -0.31,15.507 22.539,0.45 0.196,-9.83 0.123,0.124 0.01,-0.258 -0.133,0.133 0.798,-24.82 0.405,-12.409 0.543,-12.41 h 0.405 l 7.976,54.493 c 6.962,5.259 16.165,14.783 16.784,28.703 v 0 h 10.027 v 22.337 c 0,0 17.715,9.751 18.133,24.291 v 0 h 16.296 0.668 16.297 c 0.419,-14.54 18.132,-24.291 18.132,-24.291 v 0 -22.337 h 10.027 c 0.935,-21.028 21.458,-32.034 24.248,-33.435 v 0 -0.121 -0.001 l 0.052,-42.297 h 0.407 l 0.542,4.491 0.406,12.602 0.798,25.204 v 0.001 l 0.194,9.832 24.538,-0.484 -0.297,-15.475 -0.117,-18.189 -0.238,-36.378 c -0.29,-24.252 -0.041,-48.504 0.12,-72.755 v 0 l 0.238,-36.378 0.716,-36.378 c 0.028,-1.366 0.055,-2.732 0.081,-4.098 v 0 h 7.946 l -5.272,76.854 -0.046,117.869 h 8.357 c 0,0 1.003,-35.791 32.089,-45.722 v 0 h 9.024 v -13.441 h 9.713 v -45.35 -90.21 h 10.825 v 255.542 c 0,42.198 -34.207,76.407 -76.407,76.407 v 0 z"
               style="fill:url(#linearGradient712);stroke:none"
               id="path714" /></g></g></g></g><g
       id="g716"><g
         id="g718"><g
           id="g724"><g
             id="g726"><path
               d="m 110.286,265.667 c -5.088,-6.73 -9.007,-14.347 -11.506,-22.415 v 0 c -2.461,-7.834 -3.448,-16.078 -3.277,-24.283 v 0 h -0.079 l -0.001,-0.7 -0.097,-44.93 0.13,-44.931 0.061,-21.202 h 12.226 c -2.288,3.18 -5.129,9.472 -5.129,21.202 v 0 c 0.174,7.489 0.488,14.978 0.548,22.466 v 0 l 0.206,22.465 c 0.137,7.489 -0.075,14.977 -0.101,22.465 v 0 c -0.064,5.283 -0.105,10.567 -0.198,15.851 v 0 l 0.325,0.009 -0.388,6.922 -0.16,2.85 c -0.022,0.951 0.02,1.903 0.024,2.857 v 0 l 0.031,2.863 c 0.034,0.953 0.178,1.896 0.258,2.847 v 0 l 0.278,2.855 c 0.119,0.947 0.341,1.878 0.503,2.82 v 0 c 0.174,0.941 0.359,1.88 0.506,2.83 v 0 c 0.197,0.938 0.468,1.858 0.696,2.79 v 0 c 1.846,7.474 5.17,14.573 9.404,21.166 v 0 c 4.285,6.57 9.73,12.477 16.021,17.517 v 0 c 6.335,4.982 13.519,9.119 21.385,12.07 v 0 l -0.189,0.788 c -16.426,-3.852 -31.337,-13.679 -41.477,-27.172"
               style="fill:url(#linearGradient738);stroke:none"
               id="path740" /></g></g></g></g><g
       id="g742"><g
         id="g744"><g
           id="g750"><g
             id="g752"><path
               d="m 185.825,292.248 c 7.991,-2.481 15.534,-6.143 22.182,-10.983 v 0 c 1.604,-1.29 3.314,-2.428 4.815,-3.827 v 0 c 1.485,-1.413 3.091,-2.679 4.469,-4.189 v 0 c 2.88,-2.882 5.553,-5.97 7.867,-9.301 v 0 c 4.69,-6.617 8.205,-14.016 10.341,-21.755 v 0 c 0.261,-0.97 0.563,-1.927 0.791,-2.903 v 0 l 0.578,-2.952 c 0.187,-0.984 0.432,-1.956 0.573,-2.948 v 0 l 0.343,-2.985 c 0.099,-0.995 0.262,-1.985 0.316,-2.983 v 0 l 0.082,-3.002 c 0.021,-0.999 0.08,-1.998 0.071,-2.997 v 0 l -0.121,-2.996 -0.139,-3.503 0.194,-0.003 c -0.155,-13.86 -0.195,-27.721 -0.205,-41.582 v 0 c 0.062,-14.976 0.108,-29.953 0.373,-44.931 v 0 c 0.065,-7.066 0.233,-14.134 0.44,-21.202 v 0 h 3.118 l 0.03,21.202 0.015,89.861 v 0.348 h -0.083 c 0.221,8.287 -0.748,16.625 -3.224,24.543 v 0 c -2.477,8.038 -6.368,15.63 -11.427,22.342 v 0 c -10.083,13.458 -24.929,23.276 -41.306,27.141 v 0 z"
               style="fill:url(#linearGradient764);stroke:none"
               id="path766" /></g></g></g></g><g
       id="g768"><g
         id="g770"><g
           id="g776"><g
             id="g778"><path
               d="m 168.866,374.18 c -4.462,-0.002 -8.885,-1.784 -12.091,-4.87 v 0 c -3.112,-2.948 -5.041,-7.074 -5.36,-11.336 v 0 l -0.072,-10e-4 0.002,-0.513 0.154,-42.924 c 0.886,0.298 3.884,0.59 4.846,0.869 v 0 c 0,0 0.345,36.705 0.522,41.415 v 0 l 0.04,0.381 c 0.156,1.516 0.595,2.969 1.283,4.286 v 0 c 0.647,1.335 1.543,2.553 2.638,3.552 v 0 c 2.191,2.017 5.098,3.112 8.038,3.061 v 0 c 2.936,0.039 5.842,-1.046 8.033,-3.065 v 0 c 2.174,-2.022 3.574,-4.821 3.912,-7.835 v 0 l 0.037,-0.335 c 0.184,-4.726 0.255,-9.451 0.578,-14.176 v 0 c 0.307,-4.924 0.491,-9.849 0.933,-14.772 v 0 l 0.585,-7.387 0.385,-3.876 c 0.964,-0.215 1.934,-0.461 2.909,-0.738 v 0 0.163 c 4.01,-0.874 11.562,-2.804 18.777,-6.208 v 0 c -0.139,0.066 -18.708,8.963 -18.709,25.076 v 0 l 0.081,22.513 0.002,0.515 -0.073,10e-4 c -0.318,4.261 -2.248,8.387 -5.359,11.334 v 0 c -3.205,3.085 -7.625,4.869 -12.084,4.87 v 0 c -0.003,0 -0.004,0 -0.007,0 m 36.15,-64.309 c -0.001,0 -0.001,0 -0.001,0 v 0 c 0,0 0.001,0 0.001,0"
               style="fill:url(#linearGradient790);stroke:none"
               id="path792" /></g></g></g></g><g
       id="g794"><g
         id="g796"
         clip-path="url(#clipPath800)"><g
           id="g802"
           transform="translate(72.0004,38.5483)"><path
             d="M 0,0 H 0.406 C 0.407,0.035 0.408,0.07 0.41,0.104 0.272,0.111 0.138,0.128 0,0.136 Z"
             style="fill:#FFFFFF;fill-opacity:1;fill-rule:nonzero;stroke:none"
             id="path804" /></g></g></g></g></svg>
