<svg width="166" height="49" viewBox="0 0 166 49" fill="none" xmlns="http://www.w3.org/2000/svg">
<g clip-path="url(#clip0_135_170)">
<path d="M5.78114 13.9065H0V0H2.30952V11.6027H4.62391V0H6.93343V11.583H8.09062V16.225L5.78114 15.6048V13.9065Z" fill="white"/>
<path d="M17.3581 11.583H19.6725L19.0694 13.9065H15.0486V0H19.6725L19.0694 2.31856H17.3728V5.76441H19.5597L18.9272 7.9353H17.3581V11.583Z" fill="white"/>
<path d="M31.225 6.65312e-05C31.5319 -0.00232367 31.8358 0.0597135 32.1174 0.182202C32.3943 0.29541 32.646 0.462741 32.8578 0.674466C33.0657 0.887745 33.232 1.13818 33.3482 1.41286C33.4684 1.69782 33.5301 2.00422 33.5296 2.3137V6.04507C33.5296 6.35291 33.4679 6.6576 33.3482 6.941C33.2344 7.2155 33.0678 7.46474 32.8578 7.67447C32.6433 7.88296 32.3923 8.04985 32.1174 8.16673C31.8351 8.28694 31.5316 8.34888 31.225 8.34887H28.9155V13.8967H26.6011V6.65312e-05H31.225ZM31.225 5.95647V2.2251H28.9155V5.96631L31.225 5.95647Z" fill="white"/>
<path d="M47.3866 0L43.9248 6.95077L47.3866 13.8966H45.0575L42.748 9.25457V13.8966H40.4336V0H42.748V4.63712L45.0575 0H47.3866Z" fill="white"/>
<path d="M54.3052 13.9065V4.49456e-05H58.9291C59.2359 -0.0019128 59.5398 0.0601065 59.8215 0.18218C60.3764 0.41914 60.8189 0.861672 61.0572 1.41777C61.1797 1.70202 61.2415 2.00889 61.2386 2.31861V4.98176C61.2246 5.32146 61.1064 5.64853 60.9002 5.91819C60.6939 6.18784 60.4096 6.38689 60.0863 6.48809C60.4299 6.55365 60.7373 6.74403 60.9499 7.02282C61.1625 7.30161 61.2653 7.64927 61.2386 7.99934V11.6027C61.2393 11.9063 61.1794 12.2069 61.0623 12.4868C60.9452 12.7666 60.7734 13.0201 60.557 13.2321C60.3436 13.4396 60.0944 13.6064 59.8215 13.7244C59.5391 13.8441 59.2357 13.906 58.9291 13.9065H54.3052ZM56.6147 2.22507V5.37065H58.9291V2.22507H56.6147ZM56.6147 7.59568V11.5092H58.9291V7.59568H56.6147Z" fill="white"/>
<path d="M70.7612 11.583L70.467 13.9065H68.1575L70.467 0H72.7765L75.0909 13.9065H72.7765L72.4921 11.583H70.7612ZM72.1979 9.26442L71.6291 4.63712L71.0456 9.26442H72.1979Z" fill="white"/>
<path d="M96.7 6.65312e-05C97.0069 -0.00232367 97.3109 0.0597135 97.5925 0.182202C97.8681 0.297848 98.1193 0.464884 98.3329 0.674466C98.5426 0.88629 98.7091 1.13709 98.8233 1.41286C98.9458 1.69711 99.0076 2.00399 99.0047 2.3137V6.04507C99.0071 6.35314 98.9453 6.65831 98.8233 6.941C98.7115 7.21658 98.5446 7.46621 98.3329 7.67447C98.1168 7.88085 97.8661 8.04748 97.5925 8.16673C97.3102 8.28694 97.0067 8.34888 96.7 8.34887H94.3906V13.8967H92.0762V6.65312e-05H96.7ZM96.7 5.95647V2.2251H94.3906V5.96631L96.7 5.95647Z" fill="white"/>
<path d="M105.928 13.9065V0H108.238V13.9065H105.928Z" fill="white"/>
<path d="M117.481 13.9065C117.174 13.906 116.871 13.8441 116.588 13.7244C116.316 13.6064 116.066 13.4396 115.853 13.2321C115.636 13.0161 115.465 12.7591 115.348 12.476C115.231 12.193 115.171 11.8895 115.171 11.583V9.26444H117.481V11.5092H119.795V7.59566H118.187V5.37063H119.795V2.22505H117.481V4.63715H115.176V2.31858C115.173 2.00887 115.235 1.70199 115.358 1.41775C115.474 1.14307 115.64 0.892628 115.848 0.679349C116.059 0.46886 116.309 0.301657 116.584 0.187085C116.865 0.0650109 117.169 0.0029916 117.476 0.00494934H119.79C120.097 0.00255914 120.401 0.0645964 120.683 0.187085C120.958 0.301657 121.207 0.46886 121.418 0.679349C121.635 0.893374 121.807 1.14858 121.924 1.43005C122.041 1.71152 122.101 2.01358 122.1 2.31858V4.98174C122.087 5.32184 121.97 5.64959 121.763 5.91951C121.557 6.18944 121.272 6.38814 120.948 6.48806C121.291 6.55363 121.599 6.74401 121.811 7.0228C122.024 7.30159 122.127 7.64925 122.1 7.99932V11.6027C122.102 11.9107 122.04 12.2158 121.918 12.4986C121.807 12.7743 121.64 13.024 121.428 13.2321C121.215 13.4396 120.965 13.6064 120.693 13.7244C120.41 13.8446 120.107 13.9065 119.8 13.9065H117.481Z" fill="white"/>
<path d="M137.114 11.583H138.276V16.2251L135.967 15.6048V13.9065H131.357V15.6048L129.048 16.2251V11.583H130.205V2.31858C130.205 2.0091 130.266 1.70271 130.386 1.41775C130.503 1.14307 130.669 0.892628 130.877 0.679349C131.089 0.467624 131.34 0.300293 131.617 0.187085C131.899 0.0645963 132.203 0.00255914 132.51 0.00494934H137.129L137.114 11.583ZM134.804 11.583V2.22998H132.495V11.583H134.804Z" fill="white"/>
<path d="M145.214 13.9065V6.65313e-05H149.838C150.145 -0.00232367 150.449 0.0597135 150.731 0.182202C151.288 0.415213 151.732 0.859029 151.966 1.41779C152.089 1.70204 152.151 2.00892 152.148 2.31863V4.98178C152.135 5.32107 152.018 5.64803 151.812 5.91774C151.607 6.18746 151.323 6.3867 151 6.48811C151.344 6.55373 151.651 6.74429 151.862 7.02322C152.074 7.30214 152.176 7.64978 152.148 7.99936V11.6027C152.148 11.9057 152.088 12.2057 151.972 12.4854C151.856 12.7651 151.686 13.0189 151.471 13.2321C151.256 13.4401 151.005 13.6069 150.731 13.7244C150.448 13.8446 150.145 13.9066 149.838 13.9065H145.214ZM147.539 2.2251V5.37067H149.848V2.2251H147.539ZM147.539 7.5957V11.5092H149.848V7.5957H147.539Z" fill="white"/>
<path d="M161.67 11.583L161.376 13.9065H159.067L161.376 0H163.691L166 13.9065H163.691L163.401 11.583H161.67ZM163.112 9.26442L162.538 4.63712L161.96 9.26442H163.112Z" fill="white"/>
<path d="M15.5536 48.9999H10.3658L7.79152 41.1828L5.18781 48.9999H0L5.18291 33.3804L0 17.7805H5.18291L7.79152 25.5681L10.3658 17.7805H15.5536L10.3658 33.3607L15.5536 48.9999Z" fill="white"/>
<path d="M27.6551 17.7806C28.3444 17.7781 29.0269 17.9171 29.6606 18.1891C30.9062 18.7255 31.8995 19.721 32.436 20.9704C32.7093 21.6077 32.8479 22.2949 32.843 22.9887V31.3572C32.8444 32.0378 32.7098 32.7118 32.447 33.3392C32.1842 33.9667 31.7986 34.5347 31.3131 35.0098C30.8366 35.4802 30.276 35.856 29.6606 36.1174C29.0269 36.3894 28.3444 36.5285 27.6551 36.526H22.4722V48.9753H17.2844V17.7806H27.6551ZM27.6551 31.1505V22.782H22.4722V31.1505H27.6551Z" fill="white"/>
<path d="M46.5285 17.7805H50.1521V48.9802H44.9447V33.4148L38.3741 48.9999H34.574V17.7805H39.7618V33.3951L46.5285 17.7805Z" fill="white"/>
<path d="M62.2194 17.7806C62.9071 17.7776 63.5881 17.9167 64.22 18.1891C64.8383 18.4545 65.4007 18.8354 65.8774 19.3115C66.3525 19.7874 66.732 20.3507 66.9953 20.9704C67.2712 21.6069 67.4099 22.2947 67.4023 22.9887V28.192H62.2194V23.0084H57.0512V43.7918H62.2194V38.5886H67.417V43.7918C67.4209 44.4887 67.2824 45.179 67.01 45.8199C66.7542 46.4452 66.3737 47.0114 65.8921 47.4838C65.4132 47.9522 64.851 48.3262 64.2347 48.5865C63.6038 48.8628 62.9224 49.0036 62.2341 49H57.0512C56.3614 49.0032 55.6784 48.8623 55.0457 48.5865C54.4307 48.3239 53.8689 47.9501 53.3884 47.4838C52.9099 47.0087 52.5299 46.4432 52.2704 45.8199C52.0004 45.1782 51.8619 44.4884 51.8634 43.7918V23.0084C51.8584 22.3146 51.997 21.6273 52.2704 20.9901C52.8031 19.738 53.7976 18.7414 55.0457 18.2088C55.6795 17.9368 56.362 17.7978 57.0512 17.8003L62.2194 17.7806Z" fill="white"/>
<path d="M69.1528 22.9739L70.5552 17.7805H84.7211L83.3041 22.9739H79.5088V48.9999H74.321V22.9739H69.1528Z" fill="white"/>
<path d="M101.996 43.7918C102 44.4887 101.861 45.1789 101.589 45.8199C101.333 46.4452 100.952 47.0114 100.471 47.4838C99.9912 47.9513 99.4292 48.3252 98.8135 48.5864C98.1825 48.8623 97.5012 49.0032 96.8129 49H91.6398C90.9516 49.0032 90.2702 48.8623 89.6392 48.5864C89.0235 48.3252 88.4615 47.9513 87.9819 47.4838C87.5002 47.0114 87.1198 46.4452 86.8639 45.8199C86.5938 45.1782 86.4554 44.4884 86.4569 43.7918V23.0084C86.4519 22.3146 86.5905 21.6273 86.8639 20.9901C87.1272 20.3703 87.5068 19.8071 87.9819 19.3312C88.4598 18.8566 89.0219 18.476 89.6392 18.2088C90.2698 17.93 90.9508 17.7843 91.6398 17.7806H96.8276C97.5152 17.778 98.1962 17.9171 98.8282 18.1891C99.4455 18.4563 100.008 18.837 100.486 19.3115C100.961 19.7874 101.34 20.3506 101.603 20.9704C101.879 21.6069 102.018 22.2947 102.011 22.9887L101.996 43.7918ZM96.8129 43.5851V22.7967H91.6398V43.5851H96.8129Z" fill="white"/>
<path d="M103.732 49V17.7806H114.097C114.787 17.7781 115.469 17.9171 116.103 18.1891C117.351 18.7217 118.346 19.7183 118.878 20.9704C119.152 21.6077 119.29 22.2949 119.285 22.9887V28.9599C119.257 29.7223 118.993 30.457 118.53 31.0621C118.067 31.6671 117.428 32.1126 116.701 32.3368C118.336 32.7077 119.197 33.8382 119.285 35.7285V43.8066C119.288 44.4985 119.149 45.1837 118.878 45.8199C118.615 46.4353 118.235 46.9936 117.76 47.4641C117.281 47.9316 116.719 48.3055 116.103 48.5668C115.47 48.8426 114.787 48.9835 114.097 48.9803L103.732 49ZM108.915 22.7967V29.846H114.097V22.7967H108.915ZM108.915 34.8424V43.6195H114.097V34.8424H108.915Z" fill="white"/>
<path d="M136.575 43.7919C136.576 44.4885 136.438 45.1783 136.168 45.82C135.908 46.4446 135.526 47.0104 135.045 47.4839C134.567 47.9509 134.006 48.3247 133.392 48.5865C132.76 48.8624 132.077 49.0032 131.387 49.0001H126.204C125.516 49.0037 124.834 48.8629 124.203 48.5865C123.587 48.3263 123.025 47.9523 122.546 47.4839C122.064 47.0115 121.684 46.4453 121.428 45.82C121.156 45.179 121.017 44.4888 121.021 43.7919V23.0085C121.013 22.3144 121.152 21.6266 121.428 20.9902C121.691 20.3704 122.071 19.8072 122.546 19.3313C123.023 18.8552 123.585 18.4743 124.203 18.2089C124.835 17.9365 125.516 17.7974 126.204 17.8003H131.387C132.076 17.7979 132.759 17.9369 133.392 18.2089C134.638 18.7453 135.631 19.7407 136.168 20.9902C136.441 21.6274 136.58 22.3147 136.575 23.0085V43.7919ZM131.387 43.5851V22.7968H126.204V43.5851H131.387Z" fill="white"/>
<path d="M148.676 17.7805L147.289 22.9887H143.493V48.9802H138.306V17.7805H148.676Z" fill="white"/>
<path d="M166 43.7919C166.001 44.4885 165.863 45.1783 165.593 45.82C165.337 46.4453 164.957 47.0115 164.475 47.4839C163.995 47.9514 163.433 48.3253 162.818 48.5865C162.187 48.8624 161.505 49.0033 160.817 49.0001H155.629C154.941 49.0037 154.26 48.8629 153.629 48.5865C153.013 48.3253 152.451 47.9514 151.971 47.4839C151.49 47.0115 151.109 46.4453 150.853 45.82C150.583 45.1783 150.445 44.4885 150.446 43.7919V23.0085C150.441 22.3147 150.58 21.6274 150.853 20.9902C151.117 20.3704 151.496 19.8072 151.971 19.3313C152.449 18.8567 153.011 18.4761 153.629 18.2089C154.261 17.9365 154.942 17.7974 155.629 17.8003H160.817C161.505 17.7978 162.186 17.9369 162.818 18.2089C163.435 18.4761 163.997 18.8567 164.475 19.3313C164.95 19.8072 165.33 20.3704 165.593 20.9902C165.866 21.6274 166.005 22.3147 166 23.0085V43.7919ZM160.817 43.5851V22.7968H155.629V43.5851H160.817Z" fill="white"/>
</g>
<defs>
<clipPath id="clip0_135_170">
<rect width="166" height="49" fill="white"/>
</clipPath>
</defs>
</svg>
